<?xml version="1.0" encoding="UTF-8" standalone="no"?>
<!-- Created with Inkscape (http://www.inkscape.org/) -->

<svg
   width="43mm"
   height="34mm"
   viewBox="0 0 43 34"
   version="1.1"
   id="svg5"
   xml:space="preserve"
   inkscape:export-filename="deepspeech.png"
   inkscape:export-xdpi="96"
   inkscape:export-ydpi="96"
   inkscape:version="1.2.1 (9c6d41e410, 2022-07-14)"
   sodipodi:docname="dibujo.svg"
   xmlns:inkscape="http://www.inkscape.org/namespaces/inkscape"
   xmlns:sodipodi="http://sodipodi.sourceforge.net/DTD/sodipodi-0.dtd"
   xmlns="http://www.w3.org/2000/svg"
   xmlns:svg="http://www.w3.org/2000/svg"><sodipodi:namedview
     id="namedview7"
     pagecolor="#ffffff"
     bordercolor="#000000"
     borderopacity="0.25"
     inkscape:showpageshadow="2"
     inkscape:pageopacity="0.0"
     inkscape:pagecheckerboard="0"
     inkscape:deskcolor="#d1d1d1"
     inkscape:document-units="mm"
     showgrid="false"
     inkscape:zoom="2.0888418"
     inkscape:cx="89.523293"
     inkscape:cy="-10.532152"
     inkscape:window-width="1920"
     inkscape:window-height="1009"
     inkscape:window-x="-8"
     inkscape:window-y="-8"
     inkscape:window-maximized="1"
     inkscape:current-layer="layer1" /><defs
     id="defs2" /><g
     inkscape:label="Capa 1"
     inkscape:groupmode="layer"
     id="layer1"><g
       id="path332"
       transform="rotate(-52.152866,-246.40265,146.99666)"><path
         style="color:#000000;fill:#2e2f79;stroke-linecap:round;stroke-linejoin:round;-inkscape-stroke:none;paint-order:markers stroke fill"
         d="m 27.189453,260.80273 a 1.15,1.15 0 0 0 -0.849609,0.23047 L 1.8945312,279.90625 a 1.15,1.15 0 0 0 -0.2089843,1.61328 1.15,1.15 0 0 0 1.6132812,0.20703 L 27.746094,262.85352 a 1.15,1.15 0 0 0 0.207031,-1.61329 1.15,1.15 0 0 0 -0.763672,-0.4375 z"
         id="path4026" /><path
         style="color:#000000;fill:#2e2f79;stroke-width:2.3;stroke-linecap:round;stroke-linejoin:round;-inkscape-stroke:none;paint-order:markers stroke fill"
         d="M 2.5966339,280.8165 27.042999,261.9434"
         id="path4023" /></g><g
       id="path2706"
       transform="rotate(-52.152866,-246.40265,146.99666)"><path
         style="color:#000000;fill:#2e2f79;stroke-linecap:round;stroke-linejoin:round;-inkscape-stroke:none;paint-order:markers stroke fill"
         d="m 21.589844,260.69922 a 1.15,1.15 0 0 0 -0.84961,0.22851 L 3.7675781,273.98242 a 1.15,1.15 0 0 0 -0.2109375,1.61133 1.15,1.15 0 0 0 1.6132813,0.21094 L 22.142578,262.75 a 1.15,1.15 0 0 0 0.210938,-1.61133 1.15,1.15 0 0 0 -0.763672,-0.43945 z"
         id="path4020" /><path
         style="color:#000000;fill:#2e2f79;stroke-width:2.3;stroke-linecap:round;stroke-linejoin:round;-inkscape-stroke:none;paint-order:markers stroke fill"
         d="M 4.4687619,274.89332 21.441469,261.83912"
         id="path4017" /></g><g
       id="path2708"
       transform="rotate(-52.152866,-246.40265,146.99666)"><path
         style="color:#000000;fill:#2e2f79;stroke-linecap:round;stroke-linejoin:round;-inkscape-stroke:none;paint-order:markers stroke fill"
         d="m 16.8125,259.48828 a 1.15,1.15 0 0 0 -0.847656,0.23438 l -12.136719,9.47265 a 1.15,1.15 0 0 0 -0.1992187,1.61328 1.15,1.15 0 0 0 1.6152343,0.19922 l 12.1347654,-9.4707 a 1.15,1.15 0 0 0 0.199219,-1.61524 1.15,1.15 0 0 0 -0.765625,-0.43359 z"
         id="path4014" /><path
         style="color:#000000;fill:#2e2f79;stroke-width:2.3;stroke-linecap:round;stroke-linejoin:round;-inkscape-stroke:none;paint-order:markers stroke fill"
         d="M 4.5359339,270.10156 16.672089,260.62998"
         id="path4011" /></g><g
       id="path2712"
       style="stroke:none"
       transform="rotate(-52.152866,-246.40265,146.99666)"><path
         style="color:#000000;fill:#2e2f79;stroke:none;stroke-width:2.9;stroke-linecap:round;stroke-linejoin:round;stroke-dasharray:none;stroke-opacity:1;paint-order:markers stroke fill"
         d="m 9.3183594,260.32422 -3.3359375,2.57422 a 1.15,1.15 0 0 0 -0.2070313,1.61328 1.15,1.15 0 0 0 1.6132813,0.20898 l 3.3359371,-2.57617 a 1.15,1.15 0 0 0 0.207032,-1.61328 1.15,1.15 0 0 0 -1.6132816,-0.20703 z"
         id="path4008" /><path
         style="color:#000000;fill:#2e2f79;stroke:none;stroke-width:2.3;stroke-linecap:round;stroke-linejoin:round;-inkscape-stroke:none;paint-order:markers stroke fill"
         d="m 6.6855119,263.80956 3.3363251,-2.57501"
         id="path4005" /></g><g
       id="path2714"
       transform="rotate(-52.152866,-246.40265,146.99666)"><path
         style="color:#000000;fill:#2e2f79;stroke-linecap:round;stroke-linejoin:round;-inkscape-stroke:none;paint-order:markers stroke fill"
         d="M 23.933594,267.63086 9.5136719,278.95898 a 1.15,1.15 0 0 0 -0.1953125,1.61524 1.15,1.15 0 0 0 1.6152346,0.19336 L 25.353516,269.4375 a 1.15,1.15 0 0 0 0.193359,-1.61328 1.15,1.15 0 0 0 -1.613281,-0.19336 z"
         id="path4002" /><path
         style="color:#000000;fill:#2e2f79;stroke-width:2.3;stroke-linecap:round;stroke-linejoin:round;-inkscape-stroke:none;paint-order:markers stroke fill"
         d="m 10.223359,279.86422 14.42009,-11.33006"
         id="path3999" /></g><g
       id="path2716"
       transform="rotate(-52.152866,-246.40265,146.99666)"><path
         style="color:#000000;fill:#2e2f79;stroke-linecap:round;stroke-linejoin:round;-inkscape-stroke:none;paint-order:markers stroke fill"
         d="m 24.183594,272.17187 -10.478516,8.1504 a 1.15,1.15 0 0 0 -0.203125,1.61328 1.15,1.15 0 0 0 1.615235,0.20312 l 10.478515,-8.15039 a 1.15,1.15 0 0 0 0.201172,-1.61523 1.15,1.15 0 0 0 -1.613281,-0.20118 z"
         id="path3996" /><path
         style="color:#000000;fill:#2e2f79;stroke-width:2.3;stroke-linecap:round;stroke-linejoin:round;-inkscape-stroke:none;paint-order:markers stroke fill"
         d="m 14.410559,281.2301 10.47919,-8.15048"
         id="path3993" /></g><g
       id="path2718"
       transform="rotate(-49.54052,-262.69098,146.91457)"><path
         style="color:#000000;fill:#2e2f79;stroke-linecap:round;stroke-linejoin:round;-inkscape-stroke:none;paint-order:markers stroke fill"
         d="m 24.134766,276.94922 a 1.15,1.15 0 0 0 -0.839844,0.26758 l -4.388672,3.71875 a 1.15,1.15 0 0 0 -0.132813,1.61914 1.15,1.15 0 0 0 1.619141,0.13476 l 4.388672,-3.71679 a 1.15,1.15 0 0 0 0.134766,-1.6211 1.15,1.15 0 0 0 -0.78125,-0.40234 z"
         id="path3990" /><path
         style="color:#000000;fill:#2e2f79;stroke-width:2.3;stroke-linecap:round;stroke-linejoin:round;-inkscape-stroke:none;paint-order:markers stroke fill"
         d="m 19.650149,281.81228 4.38873,-3.71698"
         id="path3987" /></g><g
       id="path3448"
       transform="rotate(-49.288393,-264.52312,146.77202)"><path
         style="color:#000000;fill:#2e2f79;stroke-linecap:round;stroke-linejoin:round;-inkscape-stroke:none;paint-order:markers stroke fill"
         d="m 24.351562,281.42773 a 1.15,1.15 0 0 0 -0.83789,0.27344 l -1.566406,1.3418 a 1.15,1.15 0 0 0 -0.125,1.62305 1.15,1.15 0 0 0 1.621093,0.125 l 1.56836,-1.34375 a 1.15,1.15 0 0 0 0.125,-1.62305 1.15,1.15 0 0 0 -0.785157,-0.39649 z"
         id="path3984" /><path
         style="color:#000000;fill:#2e2f79;stroke-width:2.3;stroke-linecap:round;stroke-linejoin:round;-inkscape-stroke:none;paint-order:markers stroke fill"
         d="m 22.695389,283.91707 1.5674,-1.34348"
         id="path3981" /></g><g
       id="path3450"
       transform="rotate(-52.152866,-246.40265,146.99666)"><path
         style="color:#000000;fill:#2e2f79;stroke-linecap:round;stroke-linejoin:round;-inkscape-stroke:none;paint-order:markers stroke fill"
         d="m 29.541016,282.16992 a 1.15,1.15 0 0 0 -0.845704,0.24414 l -6.179687,4.92578 a 1.15,1.15 0 0 0 -0.181641,1.61524 1.15,1.15 0 0 0 1.615235,0.18359 l 6.179687,-4.92773 a 1.15,1.15 0 0 0 0.183594,-1.61524 1.15,1.15 0 0 0 -0.771484,-0.42578 z"
         id="path3978" /><path
         style="color:#000000;fill:#2e2f79;stroke-width:2.3;stroke-linecap:round;stroke-linejoin:round;-inkscape-stroke:none;paint-order:markers stroke fill"
         d="m 23.232789,288.23862 6.18003,-4.92612"
         id="path3975" /></g><g
       id="path3452"
       transform="rotate(-51.695478,-249.2346,146.93741)"><path
         style="color:#000000;fill:#2e2f79;stroke-linecap:round;stroke-linejoin:round;-inkscape-stroke:none;paint-order:markers stroke fill"
         d="m 33.96875,283.03711 c 0,0 -5.917968,4.59639 -12.177734,9.68945 a 1.15,1.15 0 0 0 -0.166016,1.61914 1.15,1.15 0 0 0 1.617187,0.16602 c 6.234642,-5.07262 12.138672,-9.6582 12.138672,-9.6582 a 1.15,1.15 0 0 0 0.203125,-1.61329 1.15,1.15 0 0 0 -1.615234,-0.20312 z"
         id="path3972" /><path
         style="color:#000000;fill:#2e2f79;stroke-width:2.3;stroke-linecap:round;stroke-linejoin:round;-inkscape-stroke:none;paint-order:markers stroke fill"
         d="m 22.516259,293.61912 c 6.24721,-5.08285 12.15855,-9.6731 12.15855,-9.6731"
         id="path3969" /></g><g
       id="path3454"
       transform="rotate(-52.152866,-246.40265,146.99666)"><path
         style="color:#000000;fill:#2e2f79;stroke-linecap:round;stroke-linejoin:round;-inkscape-stroke:none;paint-order:markers stroke fill"
         d="m 34.117821,287.78149 -8.018039,6.23416 a 1.15,1.15 0 0 0 -0.200581,1.61326 1.15,1.15 0 0 0 1.613224,0.20253 l 8.016087,-6.2342 a 1.15,1.15 0 0 0 0.202533,-1.61322 1.15,1.15 0 0 0 -1.613224,-0.20253 z"
         id="path3966" /></g><g
       id="path3456"
       transform="rotate(-52.152866,-246.40265,146.99666)"><path
         style="color:#000000;fill:#2e2f79;stroke-linecap:round;stroke-linejoin:round;-inkscape-stroke:none;paint-order:markers stroke fill"
         d="m 33.58511,292.71169 -2.569149,2.00115 a 1.15,1.15 0 0 0 -0.201551,1.61416 1.15,1.15 0 0 0 1.614151,0.20154 l 2.569149,-2.00115 a 1.15,1.15 0 0 0 0.201551,-1.61415 1.15,1.15 0 0 0 -1.614151,-0.20155 z"
         id="path3960" /><path
         style="color:#000000;fill:#2e2f79;stroke-width:2.3;stroke-linecap:round;stroke-linejoin:round;-inkscape-stroke:none;paint-order:markers stroke fill"
         d="m 31.763919,295.67257 2.48545,-2.10479"
         id="path3957" /></g></g></svg>
